<svg xmlns="http://www.w3.org/2000/svg" xmlns:xlink="http://www.w3.org/1999/xlink" width="500" zoomAndPan="magnify" viewBox="0 0 375 374.999991" height="500" preserveAspectRatio="xMidYMid meet" version="1.2"><defs><clipPath id="f21b192a86"><path d="M 11 3 L 35 3 L 35 40 L 11 40 Z M 11 3 "/></clipPath><clipPath id="4fd6947364"><path d="M 21.6875 42.890625 L 11.132812 3.386719 L 24.601562 -0.214844 L 35.15625 39.292969 Z M 21.6875 42.890625 "/></clipPath><clipPath id="25edffce66"><path d="M 21.6875 42.890625 L 11.132812 3.386719 L 24.601562 -0.214844 L 35.15625 39.292969 Z M 21.6875 42.890625 "/></clipPath><clipPath id="15dd6a511e"><path d="M 29 3 L 54 3 L 54 40 L 29 40 Z M 29 3 "/></clipPath><clipPath id="3c0c725fb9"><path d="M 40.441406 42.890625 L 29.886719 3.386719 L 43.355469 -0.214844 L 53.910156 39.292969 Z M 40.441406 42.890625 "/></clipPath><clipPath id="4973c005ce"><path d="M 40.441406 42.890625 L 29.886719 3.386719 L 43.355469 -0.214844 L 53.910156 39.292969 Z M 40.441406 42.890625 "/></clipPath><clipPath id="d2bac293da"><path d="M 48 3 L 73 3 L 73 40 L 48 40 Z M 48 3 "/></clipPath><clipPath id="9ca78b1942"><path d="M 59.195312 42.890625 L 48.640625 3.386719 L 62.105469 -0.214844 L 72.664062 39.292969 Z M 59.195312 42.890625 "/></clipPath><clipPath id="fa20dab8b5"><path d="M 59.195312 42.890625 L 48.640625 3.386719 L 62.105469 -0.214844 L 72.664062 39.292969 Z M 59.195312 42.890625 "/></clipPath><clipPath id="06f0d82083"><path d="M 0.28125 21 L 18 21 L 18 43.039062 L 0.28125 43.039062 Z M 0.28125 21 "/></clipPath><clipPath id="d262578c98"><path d="M 0.421875 38.410156 L 8.949219 21.890625 L 18.03125 26.582031 L 9.507812 43.097656 Z M 0.421875 38.410156 "/></clipPath><clipPath id="34f275bb5e"><path d="M 0.28125 4 L 17.800781 4 L 17.800781 19 L 0.28125 19 Z M 0.28125 4 "/></clipPath><clipPath id="8b957b521b"><path d="M 0.421875 17.410156 L 8.949219 0.890625 L 18.03125 5.582031 L 9.507812 22.097656 Z M 0.421875 17.410156 "/></clipPath><clipPath id="7bd3d56664"><path d="M 8.914062 0.957031 L 0.386719 17.472656 L 9.472656 22.160156 L 18 5.644531 Z M 8.914062 0.957031 "/></clipPath><clipPath id="cfe5599160"><rect x="0" width="18" y="0" height="23"/></clipPath><clipPath id="1134757fd7"><path d="M 65 0.078125 L 83.078125 0.078125 L 83.078125 22 L 65 22 Z M 65 0.078125 "/></clipPath><clipPath id="b7fb31694b"><path d="M 65.882812 16.554688 L 74.410156 0.0390625 L 83.492188 4.726562 L 74.96875 21.242188 Z M 65.882812 16.554688 "/></clipPath><clipPath id="d87de0f8f4"><path d="M 0.800781 3 L 18.078125 3 L 18.078125 18 L 0.800781 18 Z M 0.800781 3 "/></clipPath><clipPath id="d367989509"><path d="M 0.882812 16.554688 L 9.410156 0.0390625 L 18.492188 4.726562 L 9.96875 21.242188 Z M 0.882812 16.554688 "/></clipPath><clipPath id="5502bfcf2c"><path d="M 9.375 0.101562 L 0.851562 16.617188 L 9.933594 21.308594 L 18.460938 4.792969 Z M 9.375 0.101562 "/></clipPath><clipPath id="2e88224c7e"><rect x="0" width="19" y="0" height="22"/></clipPath><clipPath id="a53ed73d1b"><rect x="0" width="84" y="0" height="44"/></clipPath></defs><g id="909c90bbb8"><rect x="0" width="375" y="0" height="374.999991" style="fill:#ffffff;fill-opacity:1;stroke:none;"/><rect x="0" width="375" y="0" height="374.999991" style="fill:#ffffff;fill-opacity:1;stroke:none;"/><g transform="matrix(1,0,0,1,89,166)"><g clip-path="url(#a53ed73d1b)"><g clip-rule="nonzero" clip-path="url(#f21b192a86)"><g clip-rule="nonzero" clip-path="url(#4fd6947364)"><g clip-rule="nonzero" clip-path="url(#25edffce66)"><path style=" stroke:none;fill-rule:nonzero;fill:#b974f4;fill-opacity:1;" d="M 11.191406 3.601562 L 14.6875 16.691406 L 18.1875 29.78125 L 18.207031 29.851562 C 20.125 37.042969 27.511719 41.3125 34.703125 39.390625 L 31.207031 26.304688 L 27.707031 13.214844 L 27.6875 13.144531 C 25.769531 5.953125 18.382812 1.683594 11.191406 3.601562 Z M 11.191406 3.601562 "/></g></g></g><g clip-rule="nonzero" clip-path="url(#15dd6a511e)"><g clip-rule="nonzero" clip-path="url(#3c0c725fb9)"><g clip-rule="nonzero" clip-path="url(#4973c005ce)"><path style=" stroke:none;fill-rule:nonzero;fill:#915dd6;fill-opacity:1;" d="M 29.945312 3.601562 L 36.9375 29.78125 L 36.957031 29.851562 C 38.878906 37.042969 46.265625 41.3125 53.457031 39.390625 L 49.957031 26.304688 L 46.460938 13.214844 L 46.441406 13.144531 C 44.519531 5.953125 37.132812 1.683594 29.945312 3.601562 Z M 29.945312 3.601562 "/></g></g></g><g clip-rule="nonzero" clip-path="url(#d2bac293da)"><g clip-rule="nonzero" clip-path="url(#9ca78b1942)"><g clip-rule="nonzero" clip-path="url(#fa20dab8b5)"><path style=" stroke:none;fill-rule:nonzero;fill:#5c2e99;fill-opacity:1;" d="M 48.695312 3.601562 L 52.195312 16.691406 L 55.691406 29.78125 L 55.710938 29.851562 C 57.632812 37.042969 65.019531 41.3125 72.207031 39.390625 L 68.710938 26.304688 L 65.214844 13.214844 L 65.195312 13.144531 C 63.273438 5.953125 55.886719 1.683594 48.695312 3.601562 Z M 48.695312 3.601562 "/></g></g></g><g clip-rule="nonzero" clip-path="url(#06f0d82083)"><g clip-rule="nonzero" clip-path="url(#d262578c98)"><g transform="matrix(1,0,0,1,0,21)"><g id="a8706f249e" clip-path="url(#cfe5599160)"><g clip-rule="nonzero" clip-path="url(#34f275bb5e)"><g clip-rule="nonzero" clip-path="url(#8b957b521b)"><g clip-rule="nonzero" clip-path="url(#7bd3d56664)"><path style=" stroke:none;fill-rule:nonzero;fill:#d29dff;fill-opacity:1;" d="M 13.570312 13.210938 L 17.585938 5.433594 C 12.796875 2.960938 6.910156 4.839844 4.4375 9.628906 L 0.421875 17.40625 C 5.210938 19.878906 11.097656 18 13.570312 13.210938 Z M 13.570312 13.210938 "/></g></g></g></g></g></g></g><g clip-rule="nonzero" clip-path="url(#1134757fd7)"><g clip-rule="nonzero" clip-path="url(#b7fb31694b)"><g transform="matrix(1,0,0,1,65,0)"><g id="c275066165" clip-path="url(#2e88224c7e)"><g clip-rule="nonzero" clip-path="url(#d87de0f8f4)"><g clip-rule="nonzero" clip-path="url(#d367989509)"><g clip-rule="nonzero" clip-path="url(#5502bfcf2c)"><path style=" stroke:none;fill-rule:nonzero;fill:#300827;fill-opacity:1;" d="M 14.03125 12.359375 L 18.046875 4.578125 C 13.257812 2.105469 7.371094 3.984375 4.898438 8.773438 L 0.882812 16.554688 C 5.671875 19.027344 11.558594 17.148438 14.03125 12.359375 Z M 14.03125 12.359375 "/></g></g></g></g></g></g></g></g></g></g></svg>